:FULLY-SPECIFIED
:FORCE-ALL-JOINTS-BE-3DOF
:DEGREES
2650
root -1.75996 15.0949 -28.5927 1194.58 -66.2731 -119.401
lfemur -33.312 26.1639 -2.59019
ltibia 59.4184 0 0
lfoot 13.1825 12.7613 0
ltoes 2.08769 0 0
rfemur -34.2601 -21.9158 20.9684
rtibia 68.5094 0 0
rfoot -22.7093 -11.1088 0
rtoes -6.43347 0 0
lowerback 16.2926 3.82986 0.900422
upperback -0.737259 5.35428 1.37297
thorax -9.65986 2.55829 -0.218433
lowerneck -3.27549 8.43585 1.27639
upperneck 6.59835 11.1987 1.31067
head 2.58941 5.645 0.640543
lclavicle -6.2804e-14 -1.07388e-14 0
lhumerus 34.5423 -23.4122 57.4643
lradius 117.813 0 0
lwrist 1.53896 0 0
lhand -37.1552 393.268 0
lfingers 7.12502 0 0
lthumb -10.2167 -656.985 0
rclavicle -6.2804e-14 -1.07388e-14 0
rhumerus -31.8472 49.6088 -89.7746
rradius 104.549 0 0
rwrist -47.4468 0 0
rhand -10.074 -383.655 0
rfingers 7.12502 0 0
rthumb 15.8906 307.335 0
2651
root -1.87331 15.0954 -28.5656 1199.18 -65.6298 -124.17
lfemur -33.4651 26.4502 -2.47629
ltibia 57.8631 0 0
lfoot 14.0137 12.7351 0
ltoes 3.04463 0 0
rfemur -33.8577 -21.5875 20.7321
rtibia 68.6969 0 0
rfoot -23.0102 -11.0371 0
rtoes -6.43761 0 0
lowerback 16.262 4.00173 1.07438
upperback -0.736118 5.60784 1.28676
thorax -9.62778 2.66747 -0.47141
lowerneck -3.2022 8.60807 1.41561
upperneck 6.73813 11.4194 1.22083
head 2.64848 5.75334 0.595773
lclavicle -6.44036e-14 -1.07657e-14 0
lhumerus 31.9147 -21.8664 59.1139
lradius 117.356 0 0
lwrist -0.277197 0 0
lhand -37.513 392.752 0
lfingers 7.12502 0 0
lthumb -10.5624 -657.524 0
rclavicle -6.44036e-14 -1.07657e-14 0
rhumerus -32.7561 50.3611 -90.4747
rradius 105.555 0 0
rwrist -50.5243 0 0
rhand -9.33731 -383.508 0
rfingers 7.12502 0 0
rthumb 16.6004 307.529 0
2652
root -1.98665 15.0958 -28.5384 1203.69 -64.9903 -128.852
lfemur -33.6272 26.7368 -2.36822
ltibia 56.3427 0 0
lfoot 14.8169 12.706 0
ltoes 3.96294 0 0
rfemur -33.4647 -21.2628 20.5016
rtibia 68.8892 0 0
rfoot -23.3082 -10.9743 0
rtoes -6.44283 0 0
lowerback 16.2324 4.17089 1.24417
upperback -0.73628 5.85726 1.20245
thorax -9.59829 2.77491 -0.719144
lowerneck -3.12916 8.77491 1.55059
upperneck 6.87464 11.6329 1.13498
head 2.70648 5.8581 0.552633
lclavicle -6.59429e-14 -1.07884e-14 0
lhumerus 29.3185 -20.3401 60.7483
lradius 116.894 0 0
lwrist -2.05853 0 0
lhand -37.8608 392.245 0
lfingers 7.12502 0 0
lthumb -10.8983 -658.054 0
rclavicle -6.59429e-14 -1.07884e-14 0
rhumerus -33.6478 51.0984 -91.1629
rradius 106.545 0 0
rwrist -53.553 0 0
rhand -8.60998 -383.366 0
rfingers 7.12502 0 0
rthumb 17.3011 307.717 0
2653
root -2.09999 15.0963 -28.5112 1208.11 -64.3593 -133.432
lfemur -33.7982 27.0233 -2.26597
ltibia 54.863 0 0
lfoot 15.5897 12.6731 0
ltoes 4.83849 0 0
rfemur -33.0817 -20.943 20.2778
rtibia 69.0851 0 0
rfoot -23.6029 -10.9209 0
rtoes -6.44977 0 0
lowerback 16.2041 4.33681 1.40932
upperback -0.73786 6.10177 1.12038
thorax -9.57161 2.88026 -0.960812
lowerneck -3.05686 8.93638 1.68127
upperneck 7.00751 11.8393 1.053
head 2.76315 5.95932 0.511114
lclavicle -6.74157e-14 -1.08072e-14 0
lhumerus 26.7646 -18.8371 62.3607
lradius 116.431 0 0
lwrist -3.80034 0 0
lhand -38.1982 391.749 0
lfingers 7.12502 0 0
lthumb -11.2242 -658.572 0
rclavicle -6.74157e-14 -1.08072e-14 0
rhumerus -34.5222 51.8184 -91.8388
rradius 107.514 0 0
rwrist -56.5237 0 0
rhand -7.89424 -383.231 0
rfingers 7.12502 0 0
rthumb 17.9906 307.897 0
2654
root -2.21333 15.0967 -28.4841 1212.42 -63.7414 -137.896
lfemur -33.9781 27.3091 -2.16953
ltibia 53.4296 0 0
lfoot 16.3292 12.6357 0
ltoes 5.66712 0 0
rfemur -32.7097 -20.6294 20.0616
rtibia 69.2835 0 0
rfoot -23.8937 -10.8774 0
rtoes -6.45909 0 0
lowerback 16.1769 4.49891 1.56933
upperback -0.740973 6.34057 1.04089
thorax -9.54794 2.98317 -1.19559
lowerneck -2.98582 9.09246 1.80757
upperneck 7.13638 12.0386 0.974768
head 2.81826 6.05704 0.471208
lclavicle -6.88157e-14 -1.0822e-14 0
lhumerus 24.2636 -17.3613 63.9442
lradius 115.968 0 0
lwrist -5.49792 0 0
lhand -38.525 391.265 0
lfingers 7.12502 0 0
lthumb -11.5399 -659.078 0
rclavicle -6.88157e-14 -1.0822e-14 0
rhumerus -35.3792 52.5187 -92.5022
rradius 108.459 0 0
rwrist -59.4268 0 0
rhand -7.19226 -383.103 0
rfingers 7.12502 0 0
rthumb 18.6669 308.07 0
2655
root -2.32668 15.0971 -28.4569 1216.61 -63.1412 -142.229
lfemur -34.1668 27.594 -2.07888
ltibia 52.0484 0 0
lfoot 17.0329 12.5929 0
ltoes 6.44468 0 0
rfemur -32.3495 -20.3232 19.8539
rtibia 69.4833 0 0
rfoot -24.18 -10.8444 0
rtoes -6.47145 0 0
lowerback 16.151 4.65665 1.72371
upperback -0.745735 6.57287 0.964326
thorax -9.5275 3.08329 -1.42266
lowerneck -2.91653 9.24317 1.92942
upperneck 7.26086 12.2309 0.900167
head 2.87155 6.15132 0.432905
lclavicle -7.01366e-14 -1.0833e-14 0
lhumerus 21.8264 -15.9165 65.4919
lradius 115.505 0 0
lwrist -7.14657 0 0
lhand -38.841 390.795 0
lfingers 7.12502 0 0
lthumb -11.8451 -659.57 0
rclavicle -7.01366e-14 -1.0833e-14 0
rhumerus -36.2188 53.1967 -93.1528
rradius 109.377 0 0
rwrist -62.2532 0 0
rhand -6.50622 -382.982 0
rfingers 7.12502 0 0
rthumb 19.3277 308.235 0
2656
root -2.44002 15.0976 -28.4297 1220.67 -62.5633 -146.417
lfemur -34.3641 27.8776 -1.99402
ltibia 50.725 0 0
lfoot 17.6981 12.5437 0
ltoes 7.16703 0 0
rfemur -32.0018 -20.0258 19.6557
rtibia 69.6832 0 0
rfoot -24.4611 -10.8221 0
rtoes -6.48748 0 0
lowerback 16.1264 4.80948 1.87199
upperback -0.752261 6.79789 0.891024
thorax -9.51052 3.18029 -1.6412
lowerneck -2.84949 9.38849 2.04677
upperneck 7.38059 12.4162 0.829071
head 2.92279 6.2422 0.396196
lclavicle -7.1372e-14 -1.08403e-14 0
lhumerus 19.4638 -14.5066 66.997
lradius 115.046 0 0
lwrist -8.74159 0 0
lhand -39.1459 390.34 0
lfingers 7.12502 0 0
lthumb -12.1397 -660.045 0
rclavicle -7.1372e-14 -1.08403e-14 0
rhumerus -37.0406 53.8502 -93.7903
rradius 110.265 0 0
rwrist -64.9935 0 0
rhand -5.8383 -382.87 0
rfingers 7.12502 0 0
rthumb 19.9711 308.39 0
2657
root -2.55336 15.098 -28.4026 1224.57 -62.0124 -150.445
lfemur -34.5701 28.1595 -1.91493
ltibia 49.4652 0 0
lfoot 18.3222 12.4875 0
ltoes 7.83001 0 0
rfemur -31.6675 -19.7383 19.468
rtibia 69.8821 0 0
rfoot -24.7367 -10.8112 0
rtoes -6.50786 0 0
lowerback 16.1031 4.95682 2.01367
upperback -0.760666 7.01485 0.821327
thorax -9.4972 3.27382 -1.85038
lowerneck -2.78521 9.52844 2.15953
upperneck 7.4952 12.5946 0.761359
head 2.97171 6.32972 0.361074
lclavicle -7.25158e-14 -1.08441e-14 0
lhumerus 17.1865 -13.1353 68.4524
lradius 114.591 0 0
lwrist -10.2783 0 0
lhand -39.4395 389.902 0
lfingers 7.12502 0 0
lthumb -12.4233 -660.503 0
rclavicle -7.25158e-14 -1.08441e-14 0
rhumerus -37.8448 54.4767 -94.4145
rradius 111.118 0 0
rwrist -67.6384 0 0
rhand -5.19066 -382.765 0
rfingers 7.12502 0 0
rthumb 20.595 308.537 0
2658
root -2.66671 15.0985 -28.3754 1228.31 -61.493 -154.299
lfemur -34.7846 28.4394 -1.8416
ltibia 48.2749 0 0
lfoot 18.9025 12.4233 0
ltoes 8.42948 0 0
rfemur -31.3474 -19.4622 19.2916
rtibia 70.0788 0 0
rfoot -25.0059 -10.8122 0
rtoes -6.53322 0 0
lowerback 16.0813 5.09814 2.14827
upperback -0.771065 7.22295 0.755576
thorax -9.48777 3.36353 -2.04938
lowerneck -2.72417 9.663 2.26764
upperneck 7.60431 12.7662 0.69691
head 3.01808 6.41393 0.327529
lclavicle -7.35616e-14 -1.08443e-14 0
lhumerus 15.0054 -11.8064 69.8514
lradius 114.143 0 0
lwrist -11.7519 0 0
lhand -39.7216 389.483 0
lfingers 7.12502 0 0
lthumb -12.6958 -660.941 0
rclavicle -7.35616e-14 -1.08443e-14 0
rhumerus -38.6311 55.0737 -95.025
rradius 111.933 0 0
rwrist -70.1785 0 0
rhand -4.5655 -382.669 0
rfingers 7.12502 0 0
rthumb 21.1972 308.673 0
2659
root -2.78005 15.0989 -28.3482 1231.87 -61.0097 -157.964
lfemur -35.0075 28.7168 -1.77403
ltibia 47.1596 0 0
lfoot 19.4363 12.3502 0
ltoes 8.96129 0 0
rfemur -31.0424 -19.1985 19.1275
rtibia 70.2722 0 0
rfoot -25.2684 -10.8254 0
rtoes -6.56422 0 0
lowerback 16.061 5.23288 2.2753
upperback -0.783574 7.42142 0.694112
thorax -9.48243 3.44908 -2.23739
lowerneck -2.66689 9.79217 2.37104
upperneck 7.70756 12.931 0.6356
head 3.06166 6.49488 0.295552
lclavicle -7.45032e-14 -1.08412e-14 0
lhumerus 12.9313 -10.5239 71.1871
lradius 113.702 0 0
lwrist -13.1578 0 0
lhand -39.9919 389.083 0
lfingers 7.12502 0 0
lthumb -12.957 -661.359 0
rclavicle -7.45032e-14 -1.08412e-14 0
rhumerus -39.3995 55.639 -95.6216
rradius 112.708 0 0
rwrist -72.6045 0 0
rhand -3.96498 -382.583 0
rfingers 7.12502 0 0
rthumb 21.7756 308.799 0
2660
root -2.89339 15.0994 -28.3211 1235.24 -60.5672 -161.425
lfemur -35.2388 28.9913 -1.7122
ltibia 46.1252 0 0
lfoot 19.921 12.2675 0
ltoes 9.42128 0 0
rfemur -30.7531 -18.9487 18.9766
rtibia 70.4612 0 0
rfoot -25.5235 -10.8514 0
rtoes -6.60152 0 0
lowerback 16.0422 5.36048 2.39427
upperback -0.798307 7.60945 0.637277
thorax -9.4814 3.53012 -2.41357
lowerneck -2.61386 9.91596 2.46965
upperneck 7.80456 13.0891 0.577309
head 3.10218 6.57261 0.265134
lclavicle -7.53341e-14 -1.08348e-14 0
lhumerus 10.9749 -9.29144 72.4525
lradius 113.271 0 0
lwrist -14.4913 0 0
lhand -40.2502 388.705 0
lfingers 7.12502 0 0
lthumb -13.2065 -661.753 0
rclavicle -7.53341e-14 -1.08348e-14 0
rhumerus -40.1498 56.17 -96.2041
rradius 113.437 0 0
rwrist -74.9071 0 0
rhand -3.39128 -382.507 0
rfingers 7.12502 0 0
rthumb 22.3281 308.914 0
2661
root -3.00674 15.0998 -28.2939 1238.41 -60.17 -164.669
lfemur -35.4783 29.2627 -1.65609
ltibia 45.1774 0 0
lfoot 20.3539 12.1744 0
ltoes 9.80531 0 0
rfemur -30.4806 -18.714 18.8399
rtibia 70.6445 0 0
rfoot -25.7707 -10.8907 0
rtoes -6.64576 0 0
lowerback 16.025 5.48038 2.5047
upperback -0.81538 7.78627 0.585412
thorax -9.48491 3.6063 -2.57711
lowerneck -2.56558 10.0344 2.56341
upperneck 7.89496 13.2405 0.521913
head 3.13941 6.64717 0.236267
lclavicle -7.60482e-14 -1.08253e-14 0
lhumerus 9.14706 -8.11297 73.6407
lradius 112.852 0 0
lwrist -15.7477 0 0
lhand -40.4963 388.349 0
lfingers 7.12502 0 0
lthumb -13.4442 -662.124 0
rclavicle -7.60482e-14 -1.08253e-14 0
rhumerus -40.882 56.6643 -96.7721
rradius 114.119 0 0
rwrist -77.077 0 0
rhand -2.84657 -382.44 0
rfingers 7.12502 0 0
rthumb 22.8527 309.017 0
